<svg width="157" height="35" viewBox="0 0 157 35" fill="none" xmlns="http://www.w3.org/2000/svg">
<path d="M48.2339 26.4045H51.6484C52.4644 26.4045 53.1838 26.568 53.8066 26.895C54.4365 27.2146 54.9233 27.6679 55.2669 28.2551C55.6176 28.8422 55.793 29.5259 55.793 30.3062C55.793 31.0866 55.6176 31.7703 55.2669 32.3574C54.9233 32.9445 54.4365 33.4016 53.8066 33.7286C53.1838 34.0482 52.4644 34.208 51.6484 34.208H48.2339V26.4045ZM51.5625 32.7253C52.3141 32.7253 52.9118 32.5098 53.3556 32.0787C53.8066 31.6403 54.0321 31.0494 54.0321 30.3062C54.0321 29.5631 53.8066 28.9759 53.3556 28.5449C52.9118 28.1064 52.3141 27.8872 51.5625 27.8872H49.9733V32.7253H51.5625Z" fill="#777C86"/>
<path d="M58.1785 26.4045H59.918V34.208H58.1785V26.4045Z" fill="#777C86"/>
<path d="M67.8542 30.1836H69.4434V33.3496C69.0354 33.6692 68.5629 33.9144 68.026 34.0853C67.4892 34.2563 66.9487 34.3417 66.4047 34.3417C65.6245 34.3417 64.9229 34.1708 64.3002 33.8289C63.6774 33.4796 63.1871 33.0003 62.8292 32.3909C62.4784 31.774 62.303 31.0792 62.303 30.3062C62.303 29.5333 62.4784 28.8422 62.8292 28.2328C63.1871 27.6159 63.681 27.1366 64.3109 26.7947C64.9408 26.4454 65.6495 26.2708 66.4369 26.2708C67.0955 26.2708 67.6932 26.3859 68.2301 26.6163C68.7669 26.8467 69.2179 27.1812 69.583 27.6196L68.4663 28.6898C67.9294 28.1027 67.2816 27.8091 66.5228 27.8091C66.0432 27.8091 65.6173 27.9132 65.2451 28.1213C64.8728 28.3294 64.5829 28.6229 64.3753 29.002C64.1677 29.381 64.064 29.8157 64.064 30.3062C64.064 30.7893 64.1677 31.2204 64.3753 31.5994C64.5829 31.9784 64.8693 32.2757 65.2343 32.4912C65.6066 32.6993 66.0289 32.8033 66.5013 32.8033C67.0024 32.8033 67.4534 32.6919 67.8542 32.4689V30.1836Z" fill="#777C86"/>
<path d="M72.1329 26.4045H73.8724V34.208H72.1329V26.4045Z" fill="#777C86"/>
<path d="M78.2868 27.876H75.8816V26.4045H82.4314V27.876H80.0262V34.208H78.2868V27.876Z" fill="#777C86"/>
<path d="M89.0135 32.5358H85.5238L84.8581 34.208H83.0757L86.4258 26.4045H88.1438L91.5046 34.208H89.6792L89.0135 32.5358ZM88.4659 31.1646L87.274 28.177L86.0822 31.1646H88.4659Z" fill="#777C86"/>
<path d="M93.3581 26.4045H95.0975V32.7365H98.8664V34.208H93.3581V26.4045Z" fill="#777C86"/>
<path d="M109.977 32.5358H106.487L105.821 34.208H104.039L107.389 26.4045H109.107L112.468 34.208H110.642L109.977 32.5358ZM109.429 31.1646L108.237 28.177L107.045 31.1646H109.429Z" fill="#777C86"/>
<path d="M119.295 30.1836H120.884V33.3496C120.476 33.6692 120.004 33.9144 119.467 34.0853C118.93 34.2563 118.39 34.3417 117.845 34.3417C117.065 34.3417 116.364 34.1708 115.741 33.8289C115.118 33.4796 114.628 33.0003 114.27 32.3909C113.919 31.774 113.744 31.0792 113.744 30.3062C113.744 29.5333 113.919 28.8422 114.27 28.2328C114.628 27.6159 115.122 27.1366 115.752 26.7947C116.382 26.4454 117.09 26.2708 117.878 26.2708C118.536 26.2708 119.134 26.3859 119.671 26.6163C120.208 26.8467 120.659 27.1812 121.024 27.6196L119.907 28.6898C119.37 28.1027 118.722 27.8091 117.964 27.8091C117.484 27.8091 117.058 27.9132 116.686 28.1213C116.314 28.3294 116.024 28.6229 115.816 29.002C115.609 29.381 115.505 29.8157 115.505 30.3062C115.505 30.7893 115.609 31.2204 115.816 31.5994C116.024 31.9784 116.31 32.2757 116.675 32.4912C117.047 32.6993 117.47 32.8033 117.942 32.8033C118.443 32.8033 118.894 32.6919 119.295 32.4689V30.1836Z" fill="#777C86"/>
<path d="M129.393 32.7588V34.208H123.574V26.4045H129.254V27.8537H125.302V29.5482H128.792V30.9528H125.302V32.7588H129.393Z" fill="#777C86"/>
<path d="M138.745 26.4045V34.208H137.316L133.569 29.4702V34.208H131.851V26.4045H133.29L137.027 31.1423V26.4045H138.745Z" fill="#777C86"/>
<path d="M145.194 34.3417C144.428 34.3417 143.733 34.1708 143.111 33.8289C142.495 33.4796 142.008 33.0003 141.65 32.3909C141.299 31.774 141.124 31.0792 141.124 30.3062C141.124 29.5333 141.299 28.8422 141.65 28.2328C142.008 27.6159 142.495 27.1366 143.111 26.7947C143.733 26.4454 144.431 26.2708 145.204 26.2708C145.856 26.2708 146.443 26.3897 146.965 26.6275C147.495 26.8653 147.939 27.2072 148.297 27.6531L147.18 28.7233C146.672 28.1138 146.042 27.8091 145.29 27.8091C144.825 27.8091 144.41 27.9169 144.045 28.1324C143.68 28.3405 143.393 28.6341 143.186 29.0131C142.985 29.3921 142.885 29.8232 142.885 30.3062C142.885 30.7893 142.985 31.2204 143.186 31.5994C143.393 31.9784 143.68 32.2757 144.045 32.4912C144.41 32.6993 144.825 32.8033 145.29 32.8033C146.042 32.8033 146.672 32.4949 147.18 31.8781L148.297 32.9483C147.939 33.4016 147.495 33.7472 146.965 33.985C146.436 34.2228 145.845 34.3417 145.194 34.3417Z" fill="#777C86"/>
<path d="M154.079 31.4433V34.208H152.34V31.421L149.43 26.4045H151.277L153.285 29.8715L155.293 26.4045H157L154.079 31.4433Z" fill="#777C86"/>
<path d="M60.059 17.335H52.9964L51.6491 20.5058H48.0417L54.8218 5.70898H58.2988L65.1006 20.5058H61.4063L60.059 17.335ZM58.9507 14.735L56.5386 9.06997L54.1264 14.735H58.9507Z" fill="#777C86"/>
<path d="M78.544 20.5058L75.6103 16.3838H72.3724V20.5058H68.8519V5.70898H75.4364C76.7838 5.70898 77.95 5.92741 78.9351 6.36427C79.9348 6.80113 80.7026 7.42119 81.2386 8.22444C81.7747 9.0277 82.0427 9.97892 82.0427 11.0781C82.0427 12.1773 81.7674 13.1285 81.2169 13.9318C80.6809 14.7209 79.913 15.3269 78.9134 15.7497L82.3252 20.5058H78.544ZM78.4788 11.0781C78.4788 10.2467 78.2035 9.61252 77.653 9.17566C77.1025 8.72471 76.2984 8.49924 75.2409 8.49924H72.3724V13.657H75.2409C76.2984 13.657 77.1025 13.4315 77.653 12.9806C78.2035 12.5296 78.4788 11.8955 78.4788 11.0781Z" fill="#777C86"/>
<path d="M89.9438 8.49924H85.076V5.70898H98.332V8.49924H93.4642V20.5058H89.9438V8.49924Z" fill="#777C86"/>
<path d="M116.242 20.5058L116.22 11.6277L111.744 18.9416H110.157L105.702 11.8179V20.5058H102.399V5.70898H105.311L111.005 14.9041L116.611 5.70898H119.502L119.545 20.5058H116.242Z" fill="#777C86"/>
<path d="M135.345 17.335H128.283L126.935 20.5058H123.328L130.108 5.70898H133.585L140.387 20.5058H136.693L135.345 17.335ZM134.237 14.735L131.825 9.06997L129.413 14.735H134.237Z" fill="#777C86"/>
<path d="M152.936 20.5058L149.264 15.3692L145.656 20.5058H141.614L147.243 12.9806L141.897 5.70898H145.895L149.394 10.5074L152.828 5.70898H156.631L151.328 12.8537L157 20.5058H152.936Z" fill="#777C86"/>
<path d="M18.2153 28.0658H11.3103L21.2516 12.1073L31.193 28.0658H24.3039L24.3268 34.1183H42.5032L21.2516 0L0 34.1183H18.1753L18.2153 28.0658Z" fill="#777C86"/>
</svg>
