<svg width="18" height="18" viewBox="0 0 18 18" fill="none" xmlns="http://www.w3.org/2000/svg">
<path fill-rule="evenodd" clip-rule="evenodd" d="M0.00219769 8.73024C3.6482 8.68479 5.69783 8.43542 7.06575 7.06751C8.43366 5.6996 8.68302 3.64997 8.72848 0.00396729C3.9723 0.143971 0.142209 3.97406 0.00219769 8.73024ZM9.26798 0.00396729C9.31344 3.64995 9.5628 5.6996 10.9307 7.06751C12.2986 8.43542 14.3483 8.68478 17.9943 8.73024C17.8543 3.97406 14.0242 0.143971 9.26798 0.00396729ZM17.9943 9.26975C14.3483 9.31521 12.2986 9.56457 10.9307 10.9325C9.56282 12.3004 9.31344 14.35 9.26798 17.996C14.0242 17.856 17.8543 14.0259 17.9943 9.26975ZM8.72848 17.996C8.68302 14.35 8.43366 12.3004 7.06575 10.9325C5.69784 9.56457 3.6482 9.31521 0.00219727 9.26975C0.142201 14.0259 3.97229 17.856 8.72848 17.996Z" fill="#CFCFCF"/>
</svg>
