<svg width="18" height="18" viewBox="0 0 18 18" fill="none" xmlns="http://www.w3.org/2000/svg">
<path fill-rule="evenodd" clip-rule="evenodd" d="M18 9C18 13.9706 13.9706 18 9 18C4.02944 18 0 13.9706 0 9C0 4.02944 4.02944 0 9 0C13.9706 0 18 4.02944 18 9ZM9.32261 6.64392C8.44723 7.00803 6.69769 7.76162 4.07401 8.90472C3.64797 9.07415 3.42478 9.23989 3.40447 9.40196C3.37013 9.67585 3.71313 9.78371 4.1802 9.93057C4.24373 9.95055 4.30956 9.97125 4.37704 9.99319C4.83657 10.1426 5.45471 10.3173 5.77606 10.3243C6.06755 10.3306 6.39289 10.2104 6.75207 9.96374C9.20346 8.30898 10.4689 7.47259 10.5483 7.45455C10.6044 7.44183 10.682 7.42584 10.7347 7.47261C10.7873 7.51939 10.7821 7.60797 10.7765 7.63173C10.7426 7.77658 9.39618 9.0283 8.69943 9.67607C8.48222 9.878 8.32815 10.0212 8.29665 10.054C8.2261 10.1272 8.15419 10.1966 8.08508 10.2632C7.65817 10.6747 7.33803 10.9833 8.1028 11.4873C8.47032 11.7295 8.76441 11.9298 9.0578 12.1296C9.37822 12.3478 9.6978 12.5654 10.1113 12.8365C10.2166 12.9055 10.3173 12.9773 10.4153 13.0471C10.7881 13.313 11.1232 13.5518 11.537 13.5137C11.7775 13.4916 12.0259 13.2654 12.1521 12.591C12.4503 10.9971 13.0363 7.54357 13.1718 6.12046C13.1836 5.99577 13.1687 5.8362 13.1567 5.76616C13.1447 5.69611 13.1197 5.59631 13.0286 5.52243C12.9208 5.43493 12.7543 5.41648 12.6799 5.41779C12.3414 5.42375 11.822 5.60434 9.32261 6.64392Z" fill="#CFCFCF"/>
</svg>
