<svg width="18" height="18" viewBox="0 0 18 18" fill="none" xmlns="http://www.w3.org/2000/svg">
<g clip-path="url(#clip0_5_74)">
<path fill-rule="evenodd" clip-rule="evenodd" d="M1.26383 1.2631C0.000732422 2.5262 0.000732422 4.55914 0.000732422 8.625V9.375C0.000732422 13.4409 0.000732422 15.4738 1.26383 16.7369C2.52693 18 4.55987 18 8.62573 18H9.37573C13.4416 18 15.4745 18 16.7376 16.7369C18.0007 15.4738 18.0007 13.4409 18.0007 9.375V8.625C18.0007 4.55914 18.0007 2.5262 16.7376 1.2631C15.4745 0 13.4416 0 9.37573 0H8.62573C4.55987 0 2.52693 0 1.26383 1.2631ZM3.56272 5.625H4.87552C5.21103 5.625 5.33726 5.77181 5.46307 6.13526C6.10515 8.00516 7.18773 9.63934 7.63278 9.63934C7.79966 9.63934 7.87624 9.5625 7.87624 9.13875V7.20592C7.8461 6.65576 7.65385 6.41783 7.51146 6.24159C7.42353 6.13276 7.35461 6.04746 7.35461 5.92669C7.35461 5.77987 7.48008 5.625 7.68866 5.625H9.75165C10.0299 5.625 10.1267 5.77373 10.1267 6.10748V8.70769C10.1267 8.98575 10.2475 9.0831 10.3309 9.0831C10.4979 9.0831 10.6369 8.98575 10.9429 8.67986C11.8887 7.62307 12.5563 5.99618 12.5563 5.99618C12.6397 5.80155 12.7936 5.625 13.1274 5.625H14.4402C14.8372 5.625 14.9207 5.82934 14.8372 6.10748C14.6703 6.87221 13.0709 9.12484 13.0709 9.12484C12.9318 9.34729 12.8762 9.45855 13.0709 9.70883C13.1395 9.80481 13.2858 9.9481 13.4532 10.112C13.6253 10.2806 13.8198 10.4711 13.9749 10.6544C14.5389 11.2886 14.9638 11.8237 15.0822 12.1925C15.1904 12.5625 15.0029 12.75 14.6278 12.75H13.315C12.9634 12.75 12.7863 12.5531 12.4037 12.1276C12.2415 11.9472 12.0424 11.7258 11.7774 11.4609C10.9986 10.71 10.6648 10.6126 10.47 10.6126C10.2058 10.6126 10.1268 10.6875 10.1268 11.0625V12.2396C10.1268 12.5625 10.0235 12.75 9.18904 12.75C7.7982 12.75 6.26977 11.9058 5.18494 10.3485C3.55768 8.06805 3.11261 6.34384 3.11261 5.99618C3.11261 5.80155 3.18763 5.625 3.56272 5.625Z" fill="#CFCFCF"/>
</g>
<defs>
<clipPath id="clip0_5_74">
<rect width="18" height="18" fill="white"/>
</clipPath>
</defs>
</svg>
