<svg width="18" height="18" viewBox="0 0 18 18" fill="none" xmlns="http://www.w3.org/2000/svg">
<path fill-rule="evenodd" clip-rule="evenodd" d="M18 9C18 13.9706 13.9706 18 9 18C4.02944 18 0 13.9706 0 9C0 4.02944 4.02944 0 9 0C13.9706 0 18 4.02944 18 9ZM10.7978 9L7.875 7.31249V10.6875L10.7978 9ZM13.3953 5.29762C13.8794 5.42699 14.2605 5.80824 14.39 6.29218C14.625 7.16951 14.625 9 14.625 9C14.625 9 14.625 10.8305 14.39 11.7078C14.2605 12.1918 13.8794 12.573 13.3953 12.7024C12.518 12.9375 8.99995 12.9375 8.99995 12.9375C8.99995 12.9375 5.48202 12.9375 4.60469 12.7024C4.12065 12.573 3.73949 12.1918 3.61012 11.7078C3.375 10.8305 3.375 9 3.375 9C3.375 9 3.375 7.16951 3.61012 6.29218C3.73949 5.80824 4.12065 5.42699 4.60469 5.29762C5.48202 5.0625 8.99995 5.0625 8.99995 5.0625C8.99995 5.0625 12.518 5.0625 13.3953 5.29762Z" fill="#CFCFCF"/>
</svg>
